ffmpeg version 3.4.8-0ubuntu0.2 Copyright (c) 2000-2020 the FFmpeg developers
  built with gcc 7 (Ubuntu 7.5.0-3ubuntu1~18.04)
  configuration: --prefix=/usr --extra-version=0ubuntu0.2 --toolchain=hardened --libdir=/usr/lib/x86_64-linux-gnu --incdir=/usr/include/x86_64-linux-gnu --enable-gpl --disable-stripping --enable-avresample --enable-avisynth --enable-gnutls --enable-ladspa --enable-libass --enable-libbluray --enable-libbs2b --enable-libcaca --enable-libcdio --enable-libflite --enable-libfontconfig --enable-libfreetype --enable-libfribidi --enable-libgme --enable-libgsm --enable-libmp3lame --enable-libmysofa --enable-libopenjpeg --enable-libopenmpt --enable-libopus --enable-libpulse --enable-librubberband --enable-librsvg --enable-libshine --enable-libsnappy --enable-libsoxr --enable-libspeex --enable-libssh --enable-libtheora --enable-libtwolame --enable-libvorbis --enable-libvpx --enable-libwavpack --enable-libwebp --enable-libx265 --enable-libxml2 --enable-libxvid --enable-libzmq --enable-libzvbi --enable-omx --enable-openal --enable-opengl --enable-sdl2 --enable-libdc1394 --enable-libdrm --enable-libiec61883 --enable-chromaprint --enable-frei0r --enable-libopencv --enable-libx264 --enable-shared
  libavutil      55. 78.100 / 55. 78.100
  libavcodec     57.107.100 / 57.107.100
  libavformat    57. 83.100 / 57. 83.100
  libavdevice    57. 10.100 / 57. 10.100
  libavfilter     6.107.100 /  6.107.100
  libavresample   3.  7.  0 /  3.  7.  0
  libswscale      4.  8.100 /  4.  8.100
  libswresample   2.  9.100 /  2.  9.100
  libpostproc    54.  7.100 / 54.  7.100
[rawvideo @ 0x556a1177fa20] Estimating duration from bitrate, this may be inaccurate
Input #0, rawvideo, from '../../SVC-Encoder-20220109T061506Z-001/SVC-Encoder/Dataset/RollerCoaster/ERP_8x8/tile_yuv/Tile_55_480x240.yuv':
  Duration: 00:00:10.00, start: 0.000000, bitrate: 41472 kb/s
    Stream #0:0: Video: rawvideo (I420 / 0x30323449), yuv420p, 480x240, 41472 kb/s, 30 tbr, 30 tbn, 30 tbc
Stream mapping:
  Stream #0:0 -> #0:0 (rawvideo (native) -> h264 (libx264))
Press [q] to stop, [?] for help
[libx264 @ 0x556a1178cc60] using cpu capabilities: MMX2 SSE2Fast LZCNT SSSE3 SSE4.2 AVX
[libx264 @ 0x556a1178cc60] profile High, level 2.1
Output #0, rawvideo, to 'RollerCoaster_Tile_55_480x240_x264_QP_32.h264':
  Metadata:
    encoder         : Lavf57.83.100
    Stream #0:0: Video: h264 (libx264), yuv420p, 480x240, q=-1--1, 30 fps, 30 tbn, 30 tbc
    Metadata:
      encoder         : Lavc57.107.100 libx264
    Side data:
      cpb: bitrate max/min/avg: 0/0/0 buffer size: 0 vbv_delay: -1
frame=  272 fps=0.0 q=38.0 PSNR=Y:nan U:nan V:nan *:nan size=      34kB time=00:00:07.63 bitrate=  36.2kbits/s speed=15.2x    frame=  300 fps=0.0 q=38.0 LPSNR=Y:inf U:inf V:inf *:inf size=      46kB time=00:00:09.93 bitrate=  38.0kbits/s speed=  17x    
video:46kB audio:0kB subtitle:0kB other streams:0kB global headers:0kB muxing overhead: 0.000000%
[libx264 @ 0x556a1178cc60] frame I:2     Avg QP:28.22  size:  6267  PSNR Mean Y:41.71 U:45.86 V:43.42 Avg:42.45 Global:42.40
[libx264 @ 0x556a1178cc60] frame P:77    Avg QP:30.25  size:   278  PSNR Mean Y:40.39 U:45.59 V:43.55 Avg:41.37 Global:41.36
[libx264 @ 0x556a1178cc60] frame B:221   Avg QP:37.42  size:    60  PSNR Mean Y:40.20 U:45.57 V:43.48 Avg:41.20 Global:41.19
[libx264 @ 0x556a1178cc60] consecutive B-frames:  1.0%  2.0%  1.0% 96.0%
[libx264 @ 0x556a1178cc60] mb I  I16..4: 18.0% 74.8%  7.2%
[libx264 @ 0x556a1178cc60] mb P  I16..4:  0.1%  0.1%  0.0%  P16..4: 25.4%  1.6%  0.2%  0.0%  0.0%    skip:72.5%
[libx264 @ 0x556a1178cc60] mb B  I16..4:  0.0%  0.0%  0.0%  B16..8: 10.0%  0.0%  0.0%  direct: 0.0%  skip:89.9%  L0:33.9% L1:66.0% BI: 0.1%
[libx264 @ 0x556a1178cc60] 8x8 transform intra:72.1% inter:90.6%
[libx264 @ 0x556a1178cc60] coded y,uvDC,uvAC intra: 61.9% 75.6% 28.8% inter: 0.7% 1.0% 0.0%
[libx264 @ 0x556a1178cc60] i16 v,h,dc,p: 14% 49% 21% 17%
[libx264 @ 0x556a1178cc60] i8 v,h,dc,ddl,ddr,vr,hd,vl,hu:  7% 36% 15%  6%  4%  3% 14%  5% 10%
[libx264 @ 0x556a1178cc60] i4 v,h,dc,ddl,ddr,vr,hd,vl,hu: 10% 33% 15%  8%  7%  6% 10%  5%  7%
[libx264 @ 0x556a1178cc60] i8c dc,h,v,p: 41% 39%  7% 13%
[libx264 @ 0x556a1178cc60] Weighted P-Frames: Y:1.3% UV:0.0%
[libx264 @ 0x556a1178cc60] ref P L0: 59.8% 19.8% 14.8%  5.5%  0.1%
[libx264 @ 0x556a1178cc60] ref B L0: 67.8% 28.0%  4.2%
[libx264 @ 0x556a1178cc60] ref B L1: 82.4% 17.6%
[libx264 @ 0x556a1178cc60] PSNR Mean Y:40.257 U:45.574 V:43.498 Avg:41.253 Global:41.242 kb/s:37.79
